<?xml version="1.0" standalone="no"?>
<!DOCTYPE svg PUBLIC "-//W3C//DTD SVG 20010904//EN"
 "http://www.w3.org/TR/2001/REC-SVG-20010904/DTD/svg10.dtd">
<svg version="1.0" xmlns="http://www.w3.org/2000/svg"
 width="512.000000pt" height="512.000000pt" viewBox="0 0 512.000000 512.000000"
 preserveAspectRatio="xMidYMid meet">
<metadata>
Created by potrace 1.14, written by Peter Selinger 2001-2017
</metadata>
<g transform="translate(0.000000,512.000000) scale(0.100000,-0.100000)"
fill="#000000" stroke="none">
<path d="M435 5096 c-31 -31 -34 -85 -5 -111 11 -10 64 -30 119 -45 86 -23
104 -25 130 -14 51 21 67 82 33 122 -19 21 -125 55 -209 67 -37 5 -47 2 -68
-19z"/>
<path d="M943 4989 c-23 -8 -47 -43 -48 -69 0 -8 5 -27 12 -42 15 -31 22 -34
297 -102 165 -41 183 -43 212 -31 63 26 56 124 -10 144 -65 19 -144 41 -226
61 -47 11 -89 22 -95 24 -10 3 -79 17 -105 21 -8 1 -25 -1 -37 -6z"/>
<path d="M1828 4864 c-15 -8 -31 -27 -35 -42 -4 -15 -7 -136 -7 -268 l0 -242
-58 -4 c-44 -3 -65 -10 -81 -26 l-22 -23 -1 -486 -1 -486 -84 -24 c-757 -219
-1279 -900 -1294 -1688 -5 -286 48 -534 170 -790 95 -201 199 -350 350 -500
133 -133 236 -213 332 -258 l48 -22 885 0 885 0 55 26 c122 58 340 249 462
404 181 231 293 472 353 761 41 194 41 493 0 689 -62 299 -183 556 -370 785
-60 74 -200 213 -260 260 -22 17 -48 37 -58 45 -37 31 -185 124 -252 158 -94
48 -222 99 -322 128 l-83 24 0 90 c-1 50 -2 269 -3 487 -2 388 -2 398 -23 418
-14 14 -39 23 -75 27 -30 3 -56 9 -59 13 -3 5 -5 57 -5 117 l0 108 400 0 c451
0 507 -5 690 -56 137 -39 368 -142 416 -185 8 -8 19 -14 23 -14 19 0 181 -133
267 -219 110 -111 180 -199 245 -309 138 -232 213 -475 230 -743 l6 -95 -67
-29 c-203 -86 -338 -334 -338 -620 0 -221 77 -416 212 -537 316 -285 736 -3
756 507 12 291 -117 545 -327 643 l-78 37 -1 65 c-4 251 -76 524 -199 759
-265 502 -722 835 -1285 937 -121 22 -229 27 -602 28 -189 0 -344 2 -344 6 -1
3 -2 26 -4 52 -3 56 -27 98 -58 99 -12 1 -98 3 -192 4 -134 3 -176 0 -197 -11z"/>
<path d="M64 4708 c-35 -9 -51 -24 -59 -55 -9 -36 11 -79 44 -92 18 -8 167
-11 493 -9 434 3 467 4 486 21 25 23 31 44 20 83 -15 58 -16 58 -509 58 -247
1 -461 -2 -475 -6z"/>
<path d="M1205 4490 c-275 -71 -274 -70 -295 -100 -16 -23 -18 -33 -9 -63 10
-39 33 -57 71 -57 13 0 117 23 233 52 228 56 255 70 255 128 0 40 -39 80 -77
79 -15 0 -95 -18 -178 -39z"/>
<path d="M580 4334 c-25 -7 -64 -18 -88 -24 -56 -14 -82 -41 -82 -82 1 -39 17
-64 51 -76 39 -15 218 31 247 64 28 32 28 66 -2 100 -27 32 -60 37 -126 18z"/>
</g>
</svg>
